# xmcd
#
# Track frame offsets: 
#        150
#        13742
#        33317
#        39772
#        53072
#        75887
#        93110
#        98980
#        117772
#        127500
#        149090
#        171787
#
# Disc length: 2611 seconds
#
# Revision: 3
# Processed by: cddbd v1.5.2PL0 Copyright (c) Steve Scherf et al.
# Submitted via: ExactAudioCopy v1.3
#
DISCID=840a310c
DTITLE=Pink Floyd - The Final Cut
DYEAR=1988
DGENRE=Psychedelic Rock
TTITLE0=The Post War Dream
TTITLE1=Your Possible Past
TTITLE2=One Of The Few
TTITLE3=The Hero's Return
TTITLE4=The Gunners Dream
TTITLE5=Paranoid Eyes
TTITLE6=Get Your Filthy Hands Off My Desert
TTITLE7=The Fletcher Memorial Home
TTITLE8=Southampton Dock
TTITLE9=The Final Cut
TTITLE10=Not Now John
TTITLE11=Two Suns In The Sunset
EXTD=1988.02.26  28DP-5010
EXTT0=
EXTT1=
EXTT2=
EXTT3=
EXTT4=
EXTT5=
EXTT6=
EXTT7=
EXTT8=
EXTT9=
EXTT10=
EXTT11=
PLAYORDER=
